<?xml version="1.0" encoding="utf-8"?>
<!-- Generator: Adobe Illustrator 16.0.0, SVG Export Plug-In . SVG Version: 6.00 Build 0)  -->
<!DOCTYPE svg PUBLIC "-//W3C//DTD SVG 1.1//EN" "http://www.w3.org/Graphics/SVG/1.1/DTD/svg11.dtd">
<svg version="1.1" id="Layer_1" xmlns="http://www.w3.org/2000/svg" xmlns:xlink="http://www.w3.org/1999/xlink" x="0px" y="0px"
	 width="605.5px" height="326.5px" viewBox="9.94 3.398 605.5 326.5" enable-background="new 9.94 3.398 605.5 326.5"
	 xml:space="preserve">
<g>
	<path fill="#FFCC05" stroke="#000000" stroke-miterlimit="10" d="M619.379,334.461c-203.92,0-407.84,0-611.88,0
		c0-111.186,0-222.409,0-333.797c203.88,0,407.88,0,611.88,0C619.379,111.814,619.379,223.119,619.379,334.461z M312.852,11.318
		c0-0.006,0-0.014,0-0.02c-83.979,0-167.96-0.01-251.941,0.006c-24.229,0.006-42.359,17.823-42.773,42.038
		c-0.12,6.996-0.031,13.997-0.029,20.995c0.016,69.316-0.125,138.637,0.139,207.952c0.09,23.628,18.722,41.393,42.319,41.394
		c168.129,0.014,336.258,0.018,504.387,0.009c25.674-0.001,43.596-18.011,43.598-43.8c0.012-74.814,0.008-149.632-0.02-224.449
		c-0.012-26.408-17.783-44.118-44.232-44.121C480.483,11.313,396.668,11.318,312.852,11.318z"/>
	<path stroke="#000000" stroke-miterlimit="10" d="M312.852,11.318c83.816,0,167.629-0.008,251.445,0.002
		c26.449,0.004,44.223,17.714,44.232,44.123c0.025,74.815,0.029,149.633,0.02,224.448c-0.002,25.789-17.924,43.799-43.598,43.8
		c-168.129,0.009-336.258,0.005-504.387-0.009c-23.598-0.001-42.229-17.766-42.319-41.394
		c-0.264-69.316-0.123-138.635-0.139-207.952c-0.001-6.998-0.09-13.999,0.029-20.995C18.55,29.127,36.68,11.309,60.909,11.305
		c83.981-0.017,167.962-0.007,251.943-0.007C312.852,11.307,312.852,11.313,312.852,11.318z M313.45,32.777
		c-31.496,0-62.99-0.002-94.484,0c-52.324,0.006-104.648,0.031-156.972,0.007c-7.428-0.003-14.346,1.874-18.083,8.491
		c-2.482,4.396-4.068,9.949-4.085,14.992c-0.253,73.985-0.174,147.973-0.174,221.957c0,16.242,7.626,23.99,23.802,23.99
		c167.137,0.006,334.273-0.004,501.412-0.023c13.652-0.001,22.061-8.443,22.064-22.21c0.031-74.82,0.045-149.642-0.045-224.46
		c-0.004-3.416-0.486-7.072-1.764-10.203c-3.822-9.377-11.514-12.584-21.219-12.575C480.418,32.805,396.934,32.777,313.45,32.777z"
		/>
	<path fill="#FFCC05" stroke="#000000" stroke-miterlimit="10" d="M313.45,32.777c83.482,0,166.969,0.027,250.455-0.034
		c9.705-0.007,17.395,3.198,21.217,12.575c1.273,3.131,1.762,6.787,1.766,10.203c0.09,74.82,0.074,149.641,0.045,224.46
		c-0.006,13.767-8.412,22.209-22.066,22.21c-167.139,0.021-334.274,0.029-501.411,0.023c-16.175,0-23.802-7.748-23.802-23.99
		c0-73.984-0.079-147.974,0.174-221.957c0.017-5.043,1.604-10.596,4.085-14.992c3.736-6.618,10.654-8.496,18.083-8.491
		c52.324,0.024,104.648,0,156.972-0.007C250.46,32.775,281.955,32.777,313.45,32.777z M542.639,241.723
		c0-19.703,0.008-38.521-0.021-57.339c-0.002-0.983-0.26-1.978-0.49-2.944c-6.898-28.957-13.787-57.916-20.729-86.861
		c-2.133-8.891-5.018-11.069-14.332-11.071c-79.471-0.014-158.939-0.021-238.41-0.03c-54.646-0.007-109.292-0.024-163.938-0.02
		c-9.889,0.001-14.414,4.035-14.421,13.074c-0.035,44.482-0.023,88.967,0.032,133.45c0.01,7.961,4.065,11.753,12.136,11.756
		c18.16,0.006,36.319,0.021,54.479,0.011c1.441-0.001,2.883-0.167,4.218-0.251c3.984-24.319,17.256-38.46,37.017-39.755
		c9.266-0.607,17.791,1.568,25.517,6.85c11.564,7.904,16.743,19.311,17.754,33.155c1.785,0,3.09,0.001,4.396,0
		c53.646-0.003,107.292-0.051,160.939,0.082c3.996,0.01,5.393-0.96,5.736-5.098c1.561-18.676,18.182-34.263,36.918-35.046
		c21.807-0.91,39.443,14.164,41.689,35.896c0.369,3.574,1.801,4.354,5.074,4.242c6.822-0.236,13.66-0.095,20.49-0.101
		C525.147,241.719,533.596,241.723,542.639,241.723z M451.84,211.23c-16.854-0.018-30.695,13.7-30.615,30.338
		c0.08,16.76,13.754,30.709,30.301,30.908c16.645,0.201,30.904-14.035,30.9-30.85C482.42,224.865,468.721,211.249,451.84,211.23z
		 M231.801,241.851c0.035-17.056-13.329-30.577-30.209-30.563c-17.234,0.013-30.576,13.083-30.688,30.063
		c-0.113,17.1,13.306,30.791,30.464,31.092C217.818,272.727,231.767,258.705,231.801,241.851z"/>
	<path stroke="#000000" stroke-miterlimit="10" d="M542.639,241.723c-9.043,0-17.492-0.004-25.941,0.001
		c-6.83,0.004-13.668-0.138-20.49,0.101c-3.273,0.111-4.705-0.668-5.074-4.242c-2.246-21.732-19.885-36.805-41.688-35.895
		c-18.74,0.783-35.361,16.37-36.92,35.045c-0.348,4.138-1.742,5.105-5.736,5.098c-53.646-0.133-107.293-0.085-160.939-0.082
		c-1.306,0.001-2.611,0-4.396,0c-1.011-13.847-6.19-25.251-17.754-33.155c-7.726-5.28-16.251-7.458-25.517-6.85
		c-19.76,1.295-33.033,15.437-37.017,39.755c-1.335,0.084-2.777,0.25-4.218,0.251c-18.16,0.011-36.32-0.005-54.479-0.011
		c-8.071-0.003-12.126-3.795-12.136-11.756c-0.055-44.483-0.066-88.967-0.032-133.45c0.007-9.039,4.532-13.073,14.421-13.074
		c54.646-0.006,109.292,0.013,163.938,0.021c79.469,0.01,158.938,0.016,238.411,0.029c9.314,0.002,12.199,2.182,14.332,11.071
		c6.939,28.946,13.83,57.905,20.729,86.86c0.229,0.969,0.488,1.963,0.49,2.945C542.647,203.201,542.639,222.02,542.639,241.723z
		 M106.517,153.65c26.047,0,51.594,0,77.197,0c0-19.803,0-39.193,0-58.746c-25.893,0-51.425,0-77.197,0
		C106.517,114.591,106.517,133.864,106.517,153.65z M274.088,95.005c-25.41,0-50.391,0-75.45,0c0,19.779,0,39.063,0,58.685
		c25.188,0,50.214,0,75.45,0C274.088,134.036,274.088,114.759,274.088,95.005z M364.711,94.9c-25.83,0-50.693,0-75.522,0
		c-0.224,0.844-0.458,1.313-0.458,1.785c-0.03,17.976,0.02,35.953-0.101,53.928c-0.024,3.585,2.107,3.519,4.567,3.514
		c22.304-0.039,44.608-0.124,66.913-0.02c3.469,0.016,4.682-1.049,4.641-4.543c-0.146-12.148-0.043-24.301-0.037-36.451
		C364.713,107.154,364.711,101.198,364.711,94.9z M529.194,173.956c-0.994-4.198-1.896-8.035-2.813-11.87
		c-5.041-21.16-10.166-42.299-15.037-63.498c-0.766-3.329-2.188-4.244-5.396-4.142c-6.816,0.216-13.645,0.063-20.465,0.063
		c-8.438,0-16.871,0-25.908,0c3.131,26.948,6.184,53.227,9.229,79.445C489.2,173.956,508.942,173.956,529.194,173.956z
		 M445.172,94.977c-22.422,0-43.973,0-65.697,0c0,19.756,0,39.045,0,58.586c24.25,0,48.229,0,72.467,0
		C449.651,133.732,447.42,114.443,445.172,94.977z"/>
	<path stroke="#000000" stroke-miterlimit="10" d="M451.84,211.23c16.881,0.019,30.58,13.635,30.586,30.398
		c0.004,16.813-14.258,31.051-30.9,30.85c-16.547-0.199-30.221-14.148-30.301-30.908C421.145,224.931,434.987,211.213,451.84,211.23
		z"/>
	<path stroke="#000000" stroke-miterlimit="10" d="M231.801,241.851c-0.034,16.854-13.983,30.876-30.433,30.593
		c-17.158-0.301-30.578-13.992-30.464-31.092c0.112-16.98,13.454-30.053,30.688-30.063
		C218.472,211.273,231.836,224.795,231.801,241.851z"/>
	<path fill="#FFCC05" stroke="#000000" stroke-miterlimit="10" d="M106.517,153.65c0-19.787,0-39.061,0-58.746
		c25.772,0,51.304,0,77.197,0c0,19.553,0,38.943,0,58.746C158.111,153.65,132.565,153.65,106.517,153.65z"/>
	<path fill="#FFCC05" stroke="#000000" stroke-miterlimit="10" d="M274.088,95.005c0,19.753,0,39.031,0,58.685
		c-25.235,0-50.261,0-75.45,0c0-19.621,0-38.905,0-58.685C223.697,95.005,248.678,95.005,274.088,95.005z"/>
	<path fill="#FFCC05" stroke="#000000" stroke-miterlimit="10" d="M364.711,94.9c0,6.298,0.002,12.254,0,18.213
		c-0.006,12.15-0.107,24.303,0.037,36.451c0.041,3.494-1.172,4.56-4.643,4.543c-22.303-0.104-44.605-0.021-66.911,0.02
		c-2.46,0.004-4.591,0.071-4.567-3.514c0.121-17.975,0.071-35.952,0.101-53.928c0-0.472,0.234-0.941,0.458-1.785
		C314.018,94.9,338.881,94.9,364.711,94.9z"/>
	<path fill="#FFCC05" stroke="#000000" stroke-miterlimit="10" d="M529.194,173.956c-20.252,0-39.994,0-60.393,0
		c-3.045-26.218-6.098-52.497-9.229-79.445c9.037,0,17.473,0,25.908,0c6.82,0,13.646,0.151,20.465-0.065
		c3.211-0.102,4.633,0.813,5.396,4.143c4.871,21.199,9.996,42.338,15.037,63.498C527.297,165.921,528.2,169.758,529.194,173.956z"/>
	<path fill="#FFCC05" stroke="#000000" stroke-miterlimit="10" d="M445.172,94.977c2.248,19.467,4.479,38.756,6.77,58.586
		c-24.238,0-48.217,0-72.467,0c0-19.541,0-38.83,0-58.586C401.2,94.977,422.75,94.977,445.172,94.977z"/>
</g>
</svg>
